<svg width="612" height="300" viewBox="0 0 612 300" fill="none" xmlns="http://www.w3.org/2000/svg">
<path d="M29.5 32.5H117.5" stroke="#027BC5" stroke-opacity="0.3" stroke-width="4" stroke-linecap="round" stroke-linejoin="round"/>
<path d="M198.5 32.5H355.5" stroke="#027BC5" stroke-opacity="0.3" stroke-width="4" stroke-linecap="round" stroke-linejoin="round"/>
<path d="M464 32.5H590.5" stroke="#027BC5" stroke-opacity="0.3" stroke-width="4" stroke-linecap="round" stroke-linejoin="round"/>
<path d="M343.788 50.0157H411" stroke="#027BC5" stroke-opacity="0.3" stroke-width="4" stroke-linecap="round" stroke-linejoin="round"/>
<path d="M204.433 50.0157H247" stroke="#027BC5" stroke-opacity="0.3" stroke-width="4" stroke-linecap="round" stroke-linejoin="round"/>
<path d="M87.4326 50.0157H154.644" stroke="#027BC5" stroke-opacity="0.3" stroke-width="4" stroke-linecap="round" stroke-linejoin="round"/>
<path d="M22 50.0157H62" stroke="#027BC5" stroke-opacity="0.3" stroke-width="4" stroke-linecap="round" stroke-linejoin="round"/>
<path d="M524 65.2657H560.645" stroke="#027BC5" stroke-opacity="0.3" stroke-width="4" stroke-linecap="round" stroke-linejoin="round"/>
<path d="M270 65.2657H351.36" stroke="#027BC5" stroke-opacity="0.3" stroke-width="4" stroke-linecap="round" stroke-linejoin="round"/>
<path d="M142 65.2657H242.36" stroke="#027BC5" stroke-opacity="0.3" stroke-width="4" stroke-linecap="round" stroke-linejoin="round"/>
<path d="M53.7163 65.2657H90.3603" stroke="#027BC5" stroke-opacity="0.3" stroke-width="4" stroke-linecap="round" stroke-linejoin="round"/>
<path d="M27.8584 86.2657H131" stroke="#027BC5" stroke-opacity="0.3" stroke-width="4" stroke-linecap="round" stroke-linejoin="round"/>
<path d="M229.858 86.2657H323" stroke="#027BC5" stroke-opacity="0.3" stroke-width="4" stroke-linecap="round" stroke-linejoin="round"/>
<path d="M383 86.2657H430.609" stroke="#027BC5" stroke-opacity="0.3" stroke-width="4" stroke-linecap="round" stroke-linejoin="round"/>
<path d="M449.468 86.2657H511" stroke="#027BC5" stroke-opacity="0.3" stroke-width="4" stroke-linecap="round" stroke-linejoin="round"/>
<path d="M269.468 104.516H387" stroke="#027BC5" stroke-opacity="0.3" stroke-width="4" stroke-linecap="round" stroke-linejoin="round"/>
<path d="M164.468 104.516H239" stroke="#027BC5" stroke-opacity="0.3" stroke-width="4" stroke-linecap="round" stroke-linejoin="round"/>
<path d="M48.7725 118.016H147" stroke="#027BC5" stroke-opacity="0.3" stroke-width="4" stroke-linecap="round" stroke-linejoin="round"/>
<path d="M161.925 118.016H293" stroke="#027BC5" stroke-opacity="0.3" stroke-width="4" stroke-linecap="round" stroke-linejoin="round"/>
<path d="M357 118.016H399" stroke="#027BC5" stroke-opacity="0.3" stroke-width="4" stroke-linecap="round" stroke-linejoin="round"/>
<path d="M415.925 118.016H554" stroke="#027BC5" stroke-opacity="0.3" stroke-width="4" stroke-linecap="round" stroke-linejoin="round"/>
<path d="M21.9248 137.716H105" stroke="#027BC5" stroke-opacity="0.3" stroke-width="4" stroke-linecap="round" stroke-linejoin="round"/>
<path d="M204.501 137.716H247" stroke="#027BC5" stroke-opacity="0.3" stroke-width="4" stroke-linecap="round" stroke-linejoin="round"/>
<path d="M286.789 137.716H372" stroke="#027BC5" stroke-opacity="0.3" stroke-width="4" stroke-linecap="round" stroke-linejoin="round"/>
<path d="M516.789 137.716H545" stroke="#027BC5" stroke-opacity="0.3" stroke-width="4" stroke-linecap="round" stroke-linejoin="round"/>
<path d="M420.789 137.716H438" stroke="#027BC5" stroke-opacity="0.3" stroke-width="4" stroke-linecap="round" stroke-linejoin="round"/>
<path d="M457 155.516H591" stroke="#027BC5" stroke-opacity="0.3" stroke-width="4" stroke-linecap="round" stroke-linejoin="round"/>
<path d="M145.433 155.516H206" stroke="#027BC5" stroke-opacity="0.3" stroke-width="4" stroke-linecap="round" stroke-linejoin="round"/>
<path d="M120.255 155.516H138" stroke="#027BC5" stroke-opacity="0.3" stroke-width="4" stroke-linecap="round" stroke-linejoin="round"/>
<path d="M213.755 173.516H395" stroke="#027BC5" stroke-opacity="0.3" stroke-width="4" stroke-linecap="round" stroke-linejoin="round"/>
<path d="M44.416 173.516H103" stroke="#027BC5" stroke-opacity="0.3" stroke-width="4" stroke-linecap="round" stroke-linejoin="round"/>
<path d="M417.746 173.516H456" stroke="#027BC5" stroke-opacity="0.3" stroke-width="4" stroke-linecap="round" stroke-linejoin="round"/>
<path d="M456.912 187.766H506" stroke="#027BC5" stroke-opacity="0.3" stroke-width="4" stroke-linecap="round" stroke-linejoin="round"/>
<path d="M246.494 187.766H308" stroke="#027BC5" stroke-opacity="0.3" stroke-width="4" stroke-linecap="round" stroke-linejoin="round"/>
<path d="M111.494 187.766H134" stroke="#027BC5" stroke-opacity="0.3" stroke-width="4" stroke-linecap="round" stroke-linejoin="round"/>
<path d="M21.4941 187.766H77.0001" stroke="#027BC5" stroke-opacity="0.3" stroke-width="4" stroke-linecap="round" stroke-linejoin="round"/>
<path d="M288 210.516H365.583" stroke="#027BC5" stroke-opacity="0.3" stroke-width="4" stroke-linecap="round" stroke-linejoin="round"/>
<path d="M530 210.516H573.83" stroke="#027BC5" stroke-opacity="0.3" stroke-width="4" stroke-linecap="round" stroke-linejoin="round"/>
<path d="M414.124 210.516H434" stroke="#027BC5" stroke-opacity="0.3" stroke-width="4" stroke-linecap="round" stroke-linejoin="round"/>
<path d="M207.124 210.516H250.954" stroke="#027BC5" stroke-opacity="0.3" stroke-width="4" stroke-linecap="round" stroke-linejoin="round"/>
<path d="M29.1235 210.516H122" stroke="#027BC5" stroke-opacity="0.3" stroke-width="4" stroke-linecap="round" stroke-linejoin="round"/>
<path d="M332.124 234.516H351" stroke="#027BC5" stroke-opacity="0.3" stroke-width="4" stroke-linecap="round" stroke-linejoin="round"/>
<path d="M426.601 234.516H509" stroke="#027BC5" stroke-opacity="0.3" stroke-width="4" stroke-linecap="round" stroke-linejoin="round"/>
<path d="M126 234.516H253.238" stroke="#027BC5" stroke-opacity="0.3" stroke-width="4" stroke-linecap="round" stroke-linejoin="round"/>
<path d="M45.4194 234.516H99.0004" stroke="#027BC5" stroke-opacity="0.3" stroke-width="4" stroke-linecap="round" stroke-linejoin="round"/>
<path d="M126.419 250.516H222" stroke="#027BC5" stroke-opacity="0.3" stroke-width="4" stroke-linecap="round" stroke-linejoin="round"/>
<path d="M398 250.516H449.829" stroke="#027BC5" stroke-opacity="0.3" stroke-width="4" stroke-linecap="round" stroke-linejoin="round"/>
<path d="M65.124 250.516H88" stroke="#027BC5" stroke-opacity="0.3" stroke-width="4" stroke-linecap="round" stroke-linejoin="round"/>
<path fill-rule="evenodd" clip-rule="evenodd" d="M73 36C70.794 36 69 34.206 69 32C69 29.794 70.794 28 73 28C75.206 28 77 29.794 77 32C77 34.206 75.206 36 73 36Z" fill="#2D67B9"/>
<path fill-rule="evenodd" clip-rule="evenodd" d="M73 27C70.239 27 68 29.239 68 32C68 34.761 70.239 37 73 37C75.761 37 78 34.761 78 32C78 29.239 75.761 27 73 27ZM73 29C74.654 29 76 30.346 76 32C76 33.654 74.654 35 73 35C71.346 35 70 33.654 70 32C70 30.346 71.346 29 73 29Z" fill="#235090"/>
<path fill-rule="evenodd" clip-rule="evenodd" d="M294 36.065C291.794 36.065 290 34.271 290 32.065C290 29.859 291.794 28.065 294 28.065C296.206 28.065 298 29.859 298 32.065C298 34.271 296.206 36.065 294 36.065Z" fill="#2D67B9"/>
<path fill-rule="evenodd" clip-rule="evenodd" d="M294 27.065C291.239 27.065 289 29.304 289 32.065C289 34.826 291.239 37.065 294 37.065C296.761 37.065 299 34.826 299 32.065C299 29.304 296.761 27.065 294 27.065ZM294 29.065C295.654 29.065 297 30.411 297 32.065C297 33.719 295.654 35.065 294 35.065C292.346 35.065 291 33.719 291 32.065C291 30.411 292.346 29.065 294 29.065Z" fill="#235090"/>
<path fill-rule="evenodd" clip-rule="evenodd" d="M453.405 36.065C451.199 36.065 449.405 34.271 449.405 32.065C449.405 29.859 451.199 28.065 453.405 28.065C455.611 28.065 457.405 29.859 457.405 32.065C457.405 34.271 455.611 36.065 453.405 36.065Z" fill="#2D67B9"/>
<path fill-rule="evenodd" clip-rule="evenodd" d="M453.405 27.065C450.643 27.065 448.405 29.304 448.405 32.065C448.405 34.826 450.643 37.065 453.405 37.065C456.167 37.065 458.405 34.826 458.405 32.065C458.405 29.304 456.167 27.065 453.405 27.065ZM453.405 29.065C455.059 29.065 456.405 30.411 456.405 32.065C456.405 33.719 455.059 35.065 453.405 35.065C451.751 35.065 450.405 33.719 450.405 32.065C450.405 30.411 451.751 29.065 453.405 29.065Z" fill="#235090"/>
<path fill-rule="evenodd" clip-rule="evenodd" d="M192 53.5376C189.794 53.5376 188 51.7436 188 49.5376C188 47.3316 189.794 45.5376 192 45.5376C194.206 45.5376 196 47.3316 196 49.5376C196 51.7436 194.206 53.5376 192 53.5376Z" fill="#2D67B9"/>
<path fill-rule="evenodd" clip-rule="evenodd" d="M192 44.5376C189.239 44.5376 187 46.7766 187 49.5376C187 52.2996 189.239 54.5376 192 54.5376C194.761 54.5376 197 52.2996 197 49.5376C197 46.7766 194.761 44.5376 192 44.5376ZM192 46.5376C193.654 46.5376 195 47.8836 195 49.5376C195 51.1916 193.654 52.5376 192 52.5376C190.346 52.5376 189 51.1916 189 49.5376C189 47.8836 190.346 46.5376 192 46.5376Z" fill="#235090"/>
<path fill-rule="evenodd" clip-rule="evenodd" d="M386.378 53.5376C384.172 53.5376 382.378 51.7436 382.378 49.5376C382.378 47.3316 384.172 45.5376 386.378 45.5376C388.584 45.5376 390.378 47.3316 390.378 49.5376C390.378 51.7436 388.584 53.5376 386.378 53.5376Z" fill="#2D67B9"/>
<path fill-rule="evenodd" clip-rule="evenodd" d="M386.378 44.5376C383.616 44.5376 381.378 46.7766 381.378 49.5376C381.378 52.2996 383.616 54.5376 386.378 54.5376C389.14 54.5376 391.378 52.2996 391.378 49.5376C391.378 46.7766 389.14 44.5376 386.378 44.5376ZM386.378 46.5376C388.032 46.5376 389.378 47.8836 389.378 49.5376C389.378 51.1916 388.032 52.5376 386.378 52.5376C384.724 52.5376 383.378 51.1916 383.378 49.5376C383.378 47.8836 384.724 46.5376 386.378 46.5376Z" fill="#235090"/>
<path fill-rule="evenodd" clip-rule="evenodd" d="M25 53.5376C22.794 53.5376 21 51.7436 21 49.5376C21 47.3316 22.794 45.5376 25 45.5376C27.206 45.5376 29 47.3316 29 49.5376C29 51.7436 27.206 53.5376 25 53.5376Z" fill="#2D67B9"/>
<path fill-rule="evenodd" clip-rule="evenodd" d="M25 44.5376C22.239 44.5376 20 46.7766 20 49.5376C20 52.2996 22.239 54.5376 25 54.5376C27.761 54.5376 30 52.2996 30 49.5376C30 46.7766 27.761 44.5376 25 44.5376ZM25 46.5376C26.654 46.5376 28 47.8836 28 49.5376C28 51.1916 26.654 52.5376 25 52.5376C23.346 52.5376 22 51.1916 22 49.5376C22 47.8836 23.346 46.5376 25 46.5376Z" fill="#235090"/>
<path fill-rule="evenodd" clip-rule="evenodd" d="M132.378 53.5376C130.172 53.5376 128.378 51.7436 128.378 49.5376C128.378 47.3316 130.172 45.5376 132.378 45.5376C134.584 45.5376 136.378 47.3316 136.378 49.5376C136.378 51.7436 134.584 53.5376 132.378 53.5376Z" fill="#2D67B9"/>
<path fill-rule="evenodd" clip-rule="evenodd" d="M132.378 44.5376C129.617 44.5376 127.378 46.7766 127.378 49.5376C127.378 52.2996 129.617 54.5376 132.378 54.5376C135.14 54.5376 137.378 52.2996 137.378 49.5376C137.378 46.7766 135.14 44.5376 132.378 44.5376ZM132.378 46.5376C134.032 46.5376 135.378 47.8836 135.378 49.5376C135.378 51.1916 134.032 52.5376 132.378 52.5376C130.724 52.5376 129.378 51.1916 129.378 49.5376C129.378 47.8836 130.724 46.5376 132.378 46.5376Z" fill="#235090"/>
<path fill-rule="evenodd" clip-rule="evenodd" d="M98.3779 69.0752C96.1719 69.0752 94.3779 67.2812 94.3779 65.0752C94.3779 62.8692 96.1719 61.0752 98.3779 61.0752C100.584 61.0752 102.378 62.8692 102.378 65.0752C102.378 67.2812 100.584 69.0752 98.3779 69.0752Z" fill="#2D67B9"/>
<path fill-rule="evenodd" clip-rule="evenodd" d="M98.3779 60.0752C95.6169 60.0752 93.3779 62.3142 93.3779 65.0752C93.3779 67.8372 95.6169 70.0752 98.3779 70.0752C101.14 70.0752 103.378 67.8372 103.378 65.0752C103.378 62.3142 101.14 60.0752 98.3779 60.0752ZM98.3779 62.0752C100.032 62.0752 101.378 63.4212 101.378 65.0752C101.378 66.7292 100.032 68.0752 98.3779 68.0752C96.7239 68.0752 95.3779 66.7292 95.3779 65.0752C95.3779 63.4212 96.7239 62.0752 98.3779 62.0752Z" fill="#235090"/>
<path fill-rule="evenodd" clip-rule="evenodd" d="M172.378 69.0752C170.172 69.0752 168.378 67.2812 168.378 65.0752C168.378 62.8692 170.172 61.0752 172.378 61.0752C174.584 61.0752 176.378 62.8692 176.378 65.0752C176.378 67.2812 174.584 69.0752 172.378 69.0752Z" fill="#2D67B9"/>
<path fill-rule="evenodd" clip-rule="evenodd" d="M172.378 60.0752C169.617 60.0752 167.378 62.3142 167.378 65.0752C167.378 67.8372 169.617 70.0752 172.378 70.0752C175.14 70.0752 177.378 67.8372 177.378 65.0752C177.378 62.3142 175.14 60.0752 172.378 60.0752ZM172.378 62.0752C174.032 62.0752 175.378 63.4212 175.378 65.0752C175.378 66.7292 174.032 68.0752 172.378 68.0752C170.724 68.0752 169.378 66.7292 169.378 65.0752C169.378 63.4212 170.724 62.0752 172.378 62.0752Z" fill="#235090"/>
<path fill-rule="evenodd" clip-rule="evenodd" d="M332.378 69.0752C330.172 69.0752 328.378 67.2812 328.378 65.0752C328.378 62.8692 330.172 61.0752 332.378 61.0752C334.584 61.0752 336.378 62.8692 336.378 65.0752C336.378 67.2812 334.584 69.0752 332.378 69.0752Z" fill="#2D67B9"/>
<path fill-rule="evenodd" clip-rule="evenodd" d="M332.378 60.0752C329.616 60.0752 327.378 62.3142 327.378 65.0752C327.378 67.8372 329.616 70.0752 332.378 70.0752C335.14 70.0752 337.378 67.8372 337.378 65.0752C337.378 62.3142 335.14 60.0752 332.378 60.0752ZM332.378 62.0752C334.032 62.0752 335.378 63.4212 335.378 65.0752C335.378 66.7292 334.032 68.0752 332.378 68.0752C330.724 68.0752 329.378 66.7292 329.378 65.0752C329.378 63.4212 330.724 62.0752 332.378 62.0752Z" fill="#235090"/>
<path fill-rule="evenodd" clip-rule="evenodd" d="M586.378 69.0752C584.172 69.0752 582.378 67.2812 582.378 65.0752C582.378 62.8692 584.172 61.0752 586.378 61.0752C588.584 61.0752 590.378 62.8692 590.378 65.0752C590.378 67.2812 588.584 69.0752 586.378 69.0752Z" fill="#2D67B9"/>
<path fill-rule="evenodd" clip-rule="evenodd" d="M586.378 60.0752C583.616 60.0752 581.378 62.3142 581.378 65.0752C581.378 67.8372 583.616 70.0752 586.378 70.0752C589.14 70.0752 591.378 67.8372 591.378 65.0752C591.378 62.3142 589.14 60.0752 586.378 60.0752ZM586.378 62.0752C588.032 62.0752 589.378 63.4212 589.378 65.0752C589.378 66.7292 588.032 68.0752 586.378 68.0752C584.724 68.0752 583.378 66.7292 583.378 65.0752C583.378 63.4212 584.724 62.0752 586.378 62.0752Z" fill="#235090"/>
<path fill-rule="evenodd" clip-rule="evenodd" d="M261.378 90.0752C259.172 90.0752 257.378 88.2812 257.378 86.0752C257.378 83.8692 259.172 82.0752 261.378 82.0752C263.584 82.0752 265.378 83.8692 265.378 86.0752C265.378 88.2812 263.584 90.0752 261.378 90.0752Z" fill="#2D67B9"/>
<path fill-rule="evenodd" clip-rule="evenodd" d="M261.378 81.0752C258.617 81.0752 256.378 83.3142 256.378 86.0752C256.378 88.8372 258.617 91.0752 261.378 91.0752C264.14 91.0752 266.378 88.8372 266.378 86.0752C266.378 83.3142 264.14 81.0752 261.378 81.0752ZM261.378 83.0752C263.032 83.0752 264.378 84.4212 264.378 86.0752C264.378 87.7292 263.032 89.0752 261.378 89.0752C259.724 89.0752 258.378 87.7292 258.378 86.0752C258.378 84.4212 259.724 83.0752 261.378 83.0752Z" fill="#235090"/>
<path fill-rule="evenodd" clip-rule="evenodd" d="M73.3779 90.0752C71.1719 90.0752 69.3779 88.2812 69.3779 86.0752C69.3779 83.8692 71.1719 82.0752 73.3779 82.0752C75.5839 82.0752 77.3779 83.8692 77.3779 86.0752C77.3779 88.2812 75.5839 90.0752 73.3779 90.0752Z" fill="#2D67B9"/>
<path fill-rule="evenodd" clip-rule="evenodd" d="M73.3779 81.0752C70.6169 81.0752 68.3779 83.3142 68.3779 86.0752C68.3779 88.8372 70.6169 91.0752 73.3779 91.0752C76.1399 91.0752 78.3779 88.8372 78.3779 86.0752C78.3779 83.3142 76.1399 81.0752 73.3779 81.0752ZM73.3779 83.0752C75.0319 83.0752 76.3779 84.4212 76.3779 86.0752C76.3779 87.7292 75.0319 89.0752 73.3779 89.0752C71.7239 89.0752 70.3779 87.7292 70.3779 86.0752C70.3779 84.4212 71.7239 83.0752 73.3779 83.0752Z" fill="#235090"/>
<path fill-rule="evenodd" clip-rule="evenodd" d="M430.378 90.0752C428.172 90.0752 426.378 88.2812 426.378 86.0752C426.378 83.8692 428.172 82.0752 430.378 82.0752C432.584 82.0752 434.378 83.8692 434.378 86.0752C434.378 88.2812 432.584 90.0752 430.378 90.0752Z" fill="#2D67B9"/>
<path fill-rule="evenodd" clip-rule="evenodd" d="M430.378 81.0752C427.616 81.0752 425.378 83.3142 425.378 86.0752C425.378 88.8372 427.616 91.0752 430.378 91.0752C433.14 91.0752 435.378 88.8372 435.378 86.0752C435.378 83.3142 433.14 81.0752 430.378 81.0752ZM430.378 83.0752C432.032 83.0752 433.378 84.4212 433.378 86.0752C433.378 87.7292 432.032 89.0752 430.378 89.0752C428.724 89.0752 427.378 87.7292 427.378 86.0752C427.378 84.4212 428.724 83.0752 430.378 83.0752Z" fill="#235090"/>
<path fill-rule="evenodd" clip-rule="evenodd" d="M481.378 90.0752C479.172 90.0752 477.378 88.2812 477.378 86.0752C477.378 83.8692 479.172 82.0752 481.378 82.0752C483.584 82.0752 485.378 83.8692 485.378 86.0752C485.378 88.2812 483.584 90.0752 481.378 90.0752Z" fill="#2D67B9"/>
<path fill-rule="evenodd" clip-rule="evenodd" d="M481.378 81.0752C478.616 81.0752 476.378 83.3142 476.378 86.0752C476.378 88.8372 478.616 91.0752 481.378 91.0752C484.14 91.0752 486.378 88.8372 486.378 86.0752C486.378 83.3142 484.14 81.0752 481.378 81.0752ZM481.378 83.0752C483.032 83.0752 484.378 84.4212 484.378 86.0752C484.378 87.7292 483.032 89.0752 481.378 89.0752C479.724 89.0752 478.378 87.7292 478.378 86.0752C478.378 84.4212 479.724 83.0752 481.378 83.0752Z" fill="#235090"/>
<path fill-rule="evenodd" clip-rule="evenodd" d="M311.378 108.075C309.172 108.075 307.378 106.281 307.378 104.075C307.378 101.869 309.172 100.075 311.378 100.075C313.584 100.075 315.378 101.869 315.378 104.075C315.378 106.281 313.584 108.075 311.378 108.075Z" fill="#2D67B9"/>
<path fill-rule="evenodd" clip-rule="evenodd" d="M311.378 99.0752C308.616 99.0752 306.378 101.314 306.378 104.075C306.378 106.837 308.616 109.075 311.378 109.075C314.14 109.075 316.378 106.837 316.378 104.075C316.378 101.314 314.14 99.0752 311.378 99.0752ZM311.378 101.075C313.032 101.075 314.378 102.421 314.378 104.075C314.378 105.729 313.032 107.075 311.378 107.075C309.724 107.075 308.378 105.729 308.378 104.075C308.378 102.421 309.724 101.075 311.378 101.075Z" fill="#235090"/>
<path fill-rule="evenodd" clip-rule="evenodd" d="M131.378 108.075C129.172 108.075 127.378 106.281 127.378 104.075C127.378 101.869 129.172 100.075 131.378 100.075C133.584 100.075 135.378 101.869 135.378 104.075C135.378 106.281 133.584 108.075 131.378 108.075Z" fill="#2D67B9"/>
<path fill-rule="evenodd" clip-rule="evenodd" d="M131.378 99.0752C128.617 99.0752 126.378 101.314 126.378 104.075C126.378 106.837 128.617 109.075 131.378 109.075C134.14 109.075 136.378 106.837 136.378 104.075C136.378 101.314 134.14 99.0752 131.378 99.0752ZM131.378 101.075C133.032 101.075 134.378 102.421 134.378 104.075C134.378 105.729 133.032 107.075 131.378 107.075C129.724 107.075 128.378 105.729 128.378 104.075C128.378 102.421 129.724 101.075 131.378 101.075Z" fill="#235090"/>
<path fill-rule="evenodd" clip-rule="evenodd" d="M189.378 122.075C187.172 122.075 185.378 120.281 185.378 118.075C185.378 115.869 187.172 114.075 189.378 114.075C191.584 114.075 193.378 115.869 193.378 118.075C193.378 120.281 191.584 122.075 189.378 122.075Z" fill="#2D67B9"/>
<path fill-rule="evenodd" clip-rule="evenodd" d="M189.378 113.075C186.617 113.075 184.378 115.314 184.378 118.075C184.378 120.837 186.617 123.075 189.378 123.075C192.14 123.075 194.378 120.837 194.378 118.075C194.378 115.314 192.14 113.075 189.378 113.075ZM189.378 115.075C191.032 115.075 192.378 116.421 192.378 118.075C192.378 119.729 191.032 121.075 189.378 121.075C187.724 121.075 186.378 119.729 186.378 118.075C186.378 116.421 187.724 115.075 189.378 115.075Z" fill="#235090"/>
<path fill-rule="evenodd" clip-rule="evenodd" d="M96.3779 122.075C94.1719 122.075 92.3779 120.281 92.3779 118.075C92.3779 115.869 94.1719 114.075 96.3779 114.075C98.5839 114.075 100.378 115.869 100.378 118.075C100.378 120.281 98.5839 122.075 96.3779 122.075Z" fill="#2D67B9"/>
<path fill-rule="evenodd" clip-rule="evenodd" d="M96.3779 113.075C93.6169 113.075 91.3779 115.314 91.3779 118.075C91.3779 120.837 93.6169 123.075 96.3779 123.075C99.1399 123.075 101.378 120.837 101.378 118.075C101.378 115.314 99.1399 113.075 96.3779 113.075ZM96.3779 115.075C98.0319 115.075 99.3779 116.421 99.3779 118.075C99.3779 119.729 98.0319 121.075 96.3779 121.075C94.7239 121.075 93.3779 119.729 93.3779 118.075C93.3779 116.421 94.7239 115.075 96.3779 115.075Z" fill="#235090"/>
<path fill-rule="evenodd" clip-rule="evenodd" d="M32.3779 141.075C30.1719 141.075 28.3779 139.281 28.3779 137.075C28.3779 134.869 30.1719 133.075 32.3779 133.075C34.5839 133.075 36.3779 134.869 36.3779 137.075C36.3779 139.281 34.5839 141.075 32.3779 141.075Z" fill="#2D67B9"/>
<path fill-rule="evenodd" clip-rule="evenodd" d="M32.3779 132.075C29.6169 132.075 27.3779 134.314 27.3779 137.075C27.3779 139.837 29.6169 142.075 32.3779 142.075C35.1399 142.075 37.3779 139.837 37.3779 137.075C37.3779 134.314 35.1399 132.075 32.3779 132.075ZM32.3779 134.075C34.0319 134.075 35.3779 135.421 35.3779 137.075C35.3779 138.729 34.0319 140.075 32.3779 140.075C30.7239 140.075 29.3779 138.729 29.3779 137.075C29.3779 135.421 30.7239 134.075 32.3779 134.075Z" fill="#235090"/>
<path fill-rule="evenodd" clip-rule="evenodd" d="M407.378 122.075C405.172 122.075 403.378 120.281 403.378 118.075C403.378 115.869 405.172 114.075 407.378 114.075C409.584 114.075 411.378 115.869 411.378 118.075C411.378 120.281 409.584 122.075 407.378 122.075Z" fill="#2D67B9"/>
<path fill-rule="evenodd" clip-rule="evenodd" d="M407.378 113.075C404.616 113.075 402.378 115.314 402.378 118.075C402.378 120.837 404.616 123.075 407.378 123.075C410.14 123.075 412.378 120.837 412.378 118.075C412.378 115.314 410.14 113.075 407.378 113.075ZM407.378 115.075C409.032 115.075 410.378 116.421 410.378 118.075C410.378 119.729 409.032 121.075 407.378 121.075C405.724 121.075 404.378 119.729 404.378 118.075C404.378 116.421 405.724 115.075 407.378 115.075Z" fill="#235090"/>
<path fill-rule="evenodd" clip-rule="evenodd" d="M530.378 122.075C528.172 122.075 526.378 120.281 526.378 118.075C526.378 115.869 528.172 114.075 530.378 114.075C532.584 114.075 534.378 115.869 534.378 118.075C534.378 120.281 532.584 122.075 530.378 122.075Z" fill="#2D67B9"/>
<path fill-rule="evenodd" clip-rule="evenodd" d="M530.378 113.075C527.616 113.075 525.378 115.314 525.378 118.075C525.378 120.837 527.616 123.075 530.378 123.075C533.14 123.075 535.378 120.837 535.378 118.075C535.378 115.314 533.14 113.075 530.378 113.075ZM530.378 115.075C532.032 115.075 533.378 116.421 533.378 118.075C533.378 119.729 532.032 121.075 530.378 121.075C528.724 121.075 527.378 119.729 527.378 118.075C527.378 116.421 528.724 115.075 530.378 115.075Z" fill="#235090"/>
<path fill-rule="evenodd" clip-rule="evenodd" d="M258.378 141.075C256.172 141.075 254.378 139.281 254.378 137.075C254.378 134.869 256.172 133.075 258.378 133.075C260.584 133.075 262.378 134.869 262.378 137.075C262.378 139.281 260.584 141.075 258.378 141.075Z" fill="#2D67B9"/>
<path fill-rule="evenodd" clip-rule="evenodd" d="M258.378 132.075C255.617 132.075 253.378 134.314 253.378 137.075C253.378 139.837 255.617 142.075 258.378 142.075C261.14 142.075 263.378 139.837 263.378 137.075C263.378 134.314 261.14 132.075 258.378 132.075ZM258.378 134.075C260.032 134.075 261.378 135.421 261.378 137.075C261.378 138.729 260.032 140.075 258.378 140.075C256.724 140.075 255.378 138.729 255.378 137.075C255.378 135.421 256.724 134.075 258.378 134.075Z" fill="#235090"/>
<path fill-rule="evenodd" clip-rule="evenodd" d="M345.378 141.075C343.172 141.075 341.378 139.281 341.378 137.075C341.378 134.869 343.172 133.075 345.378 133.075C347.584 133.075 349.378 134.869 349.378 137.075C349.378 139.281 347.584 141.075 345.378 141.075Z" fill="#2D67B9"/>
<path fill-rule="evenodd" clip-rule="evenodd" d="M345.378 132.075C342.616 132.075 340.378 134.314 340.378 137.075C340.378 139.837 342.616 142.075 345.378 142.075C348.14 142.075 350.378 139.837 350.378 137.075C350.378 134.314 348.14 132.075 345.378 132.075ZM345.378 134.075C347.032 134.075 348.378 135.421 348.378 137.075C348.378 138.729 347.032 140.075 345.378 140.075C343.724 140.075 342.378 138.729 342.378 137.075C342.378 135.421 343.724 134.075 345.378 134.075Z" fill="#235090"/>
<path fill-rule="evenodd" clip-rule="evenodd" d="M448.378 141.075C446.172 141.075 444.378 139.281 444.378 137.075C444.378 134.869 446.172 133.075 448.378 133.075C450.584 133.075 452.378 134.869 452.378 137.075C452.378 139.281 450.584 141.075 448.378 141.075Z" fill="#2D67B9"/>
<path fill-rule="evenodd" clip-rule="evenodd" d="M448.378 132.075C445.616 132.075 443.378 134.314 443.378 137.075C443.378 139.837 445.616 142.075 448.378 142.075C451.14 142.075 453.378 139.837 453.378 137.075C453.378 134.314 451.14 132.075 448.378 132.075ZM448.378 134.075C450.032 134.075 451.378 135.421 451.378 137.075C451.378 138.729 450.032 140.075 448.378 140.075C446.724 140.075 445.378 138.729 445.378 137.075C445.378 135.421 446.724 134.075 448.378 134.075Z" fill="#235090"/>
<path fill-rule="evenodd" clip-rule="evenodd" d="M565.378 141.075C563.172 141.075 561.378 139.281 561.378 137.075C561.378 134.869 563.172 133.075 565.378 133.075C567.584 133.075 569.378 134.869 569.378 137.075C569.378 139.281 567.584 141.075 565.378 141.075Z" fill="#2D67B9"/>
<path fill-rule="evenodd" clip-rule="evenodd" d="M565.378 132.075C562.616 132.075 560.378 134.314 560.378 137.075C560.378 139.837 562.616 142.075 565.378 142.075C568.14 142.075 570.378 139.837 570.378 137.075C570.378 134.314 568.14 132.075 565.378 132.075ZM565.378 134.075C567.032 134.075 568.378 135.421 568.378 137.075C568.378 138.729 567.032 140.075 565.378 140.075C563.724 140.075 562.378 138.729 562.378 137.075C562.378 135.421 563.724 134.075 565.378 134.075Z" fill="#235090"/>
<path fill-rule="evenodd" clip-rule="evenodd" d="M111.378 159.575C109.172 159.575 107.378 157.781 107.378 155.575C107.378 153.369 109.172 151.575 111.378 151.575C113.584 151.575 115.378 153.369 115.378 155.575C115.378 157.781 113.584 159.575 111.378 159.575Z" fill="#2D67B9"/>
<path fill-rule="evenodd" clip-rule="evenodd" d="M111.378 150.575C108.617 150.575 106.378 152.813 106.378 155.575C106.378 158.337 108.617 160.575 111.378 160.575C114.14 160.575 116.378 158.337 116.378 155.575C116.378 152.813 114.14 150.575 111.378 150.575ZM111.378 152.575C113.032 152.575 114.378 153.921 114.378 155.575C114.378 157.229 113.032 158.575 111.378 158.575C109.724 158.575 108.378 157.229 108.378 155.575C108.378 153.921 109.724 152.575 111.378 152.575Z" fill="#235090"/>
<path fill-rule="evenodd" clip-rule="evenodd" d="M162.378 159.575C160.172 159.575 158.378 157.781 158.378 155.575C158.378 153.369 160.172 151.575 162.378 151.575C164.584 151.575 166.378 153.369 166.378 155.575C166.378 157.781 164.584 159.575 162.378 159.575Z" fill="#2D67B9"/>
<path fill-rule="evenodd" clip-rule="evenodd" d="M162.378 150.575C159.617 150.575 157.378 152.813 157.378 155.575C157.378 158.337 159.617 160.575 162.378 160.575C165.14 160.575 167.378 158.337 167.378 155.575C167.378 152.813 165.14 150.575 162.378 150.575ZM162.378 152.575C164.032 152.575 165.378 153.921 165.378 155.575C165.378 157.229 164.032 158.575 162.378 158.575C160.724 158.575 159.378 157.229 159.378 155.575C159.378 153.921 160.724 152.575 162.378 152.575Z" fill="#235090"/>
<path fill-rule="evenodd" clip-rule="evenodd" d="M493.378 159.075C491.172 159.075 489.378 157.281 489.378 155.075C489.378 152.869 491.172 151.075 493.378 151.075C495.584 151.075 497.378 152.869 497.378 155.075C497.378 157.281 495.584 159.075 493.378 159.075Z" fill="#2D67B9"/>
<path fill-rule="evenodd" clip-rule="evenodd" d="M493.378 150.075C490.616 150.075 488.378 152.313 488.378 155.075C488.378 157.837 490.616 160.075 493.378 160.075C496.14 160.075 498.378 157.837 498.378 155.075C498.378 152.313 496.14 150.075 493.378 150.075ZM493.378 152.075C495.032 152.075 496.378 153.421 496.378 155.075C496.378 156.729 495.032 158.075 493.378 158.075C491.724 158.075 490.378 156.729 490.378 155.075C490.378 153.421 491.724 152.075 493.378 152.075Z" fill="#235090"/>
<path fill-rule="evenodd" clip-rule="evenodd" d="M332.378 177.075C330.172 177.075 328.378 175.281 328.378 173.075C328.378 170.869 330.172 169.075 332.378 169.075C334.584 169.075 336.378 170.869 336.378 173.075C336.378 175.281 334.584 177.075 332.378 177.075Z" fill="#2D67B9"/>
<path fill-rule="evenodd" clip-rule="evenodd" d="M332.378 168.075C329.616 168.075 327.378 170.313 327.378 173.075C327.378 175.837 329.616 178.075 332.378 178.075C335.14 178.075 337.378 175.837 337.378 173.075C337.378 170.313 335.14 168.075 332.378 168.075ZM332.378 170.075C334.032 170.075 335.378 171.421 335.378 173.075C335.378 174.729 334.032 176.075 332.378 176.075C330.724 176.075 329.378 174.729 329.378 173.075C329.378 171.421 330.724 170.075 332.378 170.075Z" fill="#235090"/>
<path fill-rule="evenodd" clip-rule="evenodd" d="M84.3779 177.075C82.1719 177.075 80.3779 175.281 80.3779 173.075C80.3779 170.869 82.1719 169.075 84.3779 169.075C86.5839 169.075 88.3779 170.869 88.3779 173.075C88.3779 175.281 86.5839 177.075 84.3779 177.075Z" fill="#2D67B9"/>
<path fill-rule="evenodd" clip-rule="evenodd" d="M84.3779 168.075C81.6169 168.075 79.3779 170.313 79.3779 173.075C79.3779 175.837 81.6169 178.075 84.3779 178.075C87.1399 178.075 89.3779 175.837 89.3779 173.075C89.3779 170.313 87.1399 168.075 84.3779 168.075ZM84.3779 170.075C86.0319 170.075 87.3779 171.421 87.3779 173.075C87.3779 174.729 86.0319 176.075 84.3779 176.075C82.7239 176.075 81.3779 174.729 81.3779 173.075C81.3779 171.421 82.7239 170.075 84.3779 170.075Z" fill="#235090"/>
<path fill-rule="evenodd" clip-rule="evenodd" d="M419.378 177.075C417.172 177.075 415.378 175.281 415.378 173.075C415.378 170.869 417.172 169.075 419.378 169.075C421.584 169.075 423.378 170.869 423.378 173.075C423.378 175.281 421.584 177.075 419.378 177.075Z" fill="#2D67B9"/>
<path fill-rule="evenodd" clip-rule="evenodd" d="M419.378 168.075C416.616 168.075 414.378 170.313 414.378 173.075C414.378 175.837 416.616 178.075 419.378 178.075C422.14 178.075 424.378 175.837 424.378 173.075C424.378 170.313 422.14 168.075 419.378 168.075ZM419.378 170.075C421.032 170.075 422.378 171.421 422.378 173.075C422.378 174.729 421.032 176.075 419.378 176.075C417.724 176.075 416.378 174.729 416.378 173.075C416.378 171.421 417.724 170.075 419.378 170.075Z" fill="#235090"/>
<path fill-rule="evenodd" clip-rule="evenodd" d="M273.378 191.742C271.172 191.742 269.378 189.948 269.378 187.742C269.378 185.536 271.172 183.742 273.378 183.742C275.584 183.742 277.378 185.536 277.378 187.742C277.378 189.948 275.584 191.742 273.378 191.742Z" fill="#2D67B9"/>
<path fill-rule="evenodd" clip-rule="evenodd" d="M273.378 182.742C270.617 182.742 268.378 184.98 268.378 187.742C268.378 190.504 270.617 192.742 273.378 192.742C276.14 192.742 278.378 190.504 278.378 187.742C278.378 184.98 276.14 182.742 273.378 182.742ZM273.378 184.742C275.032 184.742 276.378 186.088 276.378 187.742C276.378 189.396 275.032 190.742 273.378 190.742C271.724 190.742 270.378 189.396 270.378 187.742C270.378 186.088 271.724 184.742 273.378 184.742Z" fill="#235090"/>
<path fill-rule="evenodd" clip-rule="evenodd" d="M43.3779 191.742C41.1719 191.742 39.3779 189.948 39.3779 187.742C39.3779 185.536 41.1719 183.742 43.3779 183.742C45.5839 183.742 47.3779 185.536 47.3779 187.742C47.3779 189.948 45.5839 191.742 43.3779 191.742Z" fill="#2D67B9"/>
<path fill-rule="evenodd" clip-rule="evenodd" d="M43.3779 182.742C40.6169 182.742 38.3779 184.98 38.3779 187.742C38.3779 190.504 40.6169 192.742 43.3779 192.742C46.1399 192.742 48.3779 190.504 48.3779 187.742C48.3779 184.98 46.1399 182.742 43.3779 182.742ZM43.3779 184.742C45.0319 184.742 46.3779 186.088 46.3779 187.742C46.3779 189.396 45.0319 190.742 43.3779 190.742C41.7239 190.742 40.3779 189.396 40.3779 187.742C40.3779 186.088 41.7239 184.742 43.3779 184.742Z" fill="#235090"/>
<path fill-rule="evenodd" clip-rule="evenodd" d="M142.378 191.742C140.172 191.742 138.378 189.948 138.378 187.742C138.378 185.536 140.172 183.742 142.378 183.742C144.584 183.742 146.378 185.536 146.378 187.742C146.378 189.948 144.584 191.742 142.378 191.742Z" fill="#2D67B9"/>
<path fill-rule="evenodd" clip-rule="evenodd" d="M142.378 182.742C139.617 182.742 137.378 184.98 137.378 187.742C137.378 190.504 139.617 192.742 142.378 192.742C145.14 192.742 147.378 190.504 147.378 187.742C147.378 184.98 145.14 182.742 142.378 182.742ZM142.378 184.742C144.032 184.742 145.378 186.088 145.378 187.742C145.378 189.396 144.032 190.742 142.378 190.742C140.724 190.742 139.378 189.396 139.378 187.742C139.378 186.088 140.724 184.742 142.378 184.742Z" fill="#235090"/>
<path fill-rule="evenodd" clip-rule="evenodd" d="M527.378 191.742C525.172 191.742 523.378 189.948 523.378 187.742C523.378 185.536 525.172 183.742 527.378 183.742C529.584 183.742 531.378 185.536 531.378 187.742C531.378 189.948 529.584 191.742 527.378 191.742Z" fill="#2D67B9"/>
<path fill-rule="evenodd" clip-rule="evenodd" d="M527.378 182.742C524.616 182.742 522.378 184.98 522.378 187.742C522.378 190.504 524.616 192.742 527.378 192.742C530.14 192.742 532.378 190.504 532.378 187.742C532.378 184.98 530.14 182.742 527.378 182.742ZM527.378 184.742C529.032 184.742 530.378 186.088 530.378 187.742C530.378 189.396 529.032 190.742 527.378 190.742C525.724 190.742 524.378 189.396 524.378 187.742C524.378 186.088 525.724 184.742 527.378 184.742Z" fill="#235090"/>
<path fill-rule="evenodd" clip-rule="evenodd" d="M190.222 214.392C188.016 214.392 186.222 212.598 186.222 210.392C186.222 208.186 188.016 206.392 190.222 206.392C192.428 206.392 194.222 208.186 194.222 210.392C194.222 212.598 192.428 214.392 190.222 214.392Z" fill="#2D67B9"/>
<path fill-rule="evenodd" clip-rule="evenodd" d="M190.222 205.392C187.46 205.392 185.222 207.63 185.222 210.392C185.222 213.154 187.46 215.392 190.222 215.392C192.983 215.392 195.222 213.154 195.222 210.392C195.222 207.63 192.983 205.392 190.222 205.392ZM190.222 207.392C191.876 207.392 193.222 208.738 193.222 210.392C193.222 212.046 191.876 213.392 190.222 213.392C188.568 213.392 187.222 212.046 187.222 210.392C187.222 208.738 188.568 207.392 190.222 207.392Z" fill="#235090"/>
<path fill-rule="evenodd" clip-rule="evenodd" d="M363.222 214.392C361.016 214.392 359.222 212.598 359.222 210.392C359.222 208.186 361.016 206.392 363.222 206.392C365.428 206.392 367.222 208.186 367.222 210.392C367.222 212.598 365.428 214.392 363.222 214.392Z" fill="#2D67B9"/>
<path fill-rule="evenodd" clip-rule="evenodd" d="M363.222 205.392C360.461 205.392 358.222 207.63 358.222 210.392C358.222 213.154 360.461 215.392 363.222 215.392C365.984 215.392 368.222 213.154 368.222 210.392C368.222 207.63 365.984 205.392 363.222 205.392ZM363.222 207.392C364.876 207.392 366.222 208.738 366.222 210.392C366.222 212.046 364.876 213.392 363.222 213.392C361.569 213.392 360.222 212.046 360.222 210.392C360.222 208.738 361.569 207.392 363.222 207.392Z" fill="#235090"/>
<path fill-rule="evenodd" clip-rule="evenodd" d="M404.222 214.392C402.016 214.392 400.222 212.598 400.222 210.392C400.222 208.186 402.016 206.392 404.222 206.392C406.428 206.392 408.222 208.186 408.222 210.392C408.222 212.598 406.428 214.392 404.222 214.392Z" fill="#2D67B9"/>
<path fill-rule="evenodd" clip-rule="evenodd" d="M404.222 205.392C401.461 205.392 399.222 207.63 399.222 210.392C399.222 213.154 401.461 215.392 404.222 215.392C406.984 215.392 409.222 213.154 409.222 210.392C409.222 207.63 406.984 205.392 404.222 205.392ZM404.222 207.392C405.876 207.392 407.222 208.738 407.222 210.392C407.222 212.046 405.876 213.392 404.222 213.392C402.569 213.392 401.222 212.046 401.222 210.392C401.222 208.738 402.569 207.392 404.222 207.392Z" fill="#235090"/>
<path fill-rule="evenodd" clip-rule="evenodd" d="M563.222 214.392C561.016 214.392 559.222 212.598 559.222 210.392C559.222 208.186 561.016 206.392 563.222 206.392C565.428 206.392 567.222 208.186 567.222 210.392C567.222 212.598 565.428 214.392 563.222 214.392Z" fill="#2D67B9"/>
<path fill-rule="evenodd" clip-rule="evenodd" d="M563.222 205.392C560.461 205.392 558.222 207.63 558.222 210.392C558.222 213.154 560.461 215.392 563.222 215.392C565.984 215.392 568.222 213.154 568.222 210.392C568.222 207.63 565.984 205.392 563.222 205.392ZM563.222 207.392C564.876 207.392 566.222 208.738 566.222 210.392C566.222 212.046 564.876 213.392 563.222 213.392C561.569 213.392 560.222 212.046 560.222 210.392C560.222 208.738 561.569 207.392 563.222 207.392Z" fill="#235090"/>
<path fill-rule="evenodd" clip-rule="evenodd" d="M91.2222 214.392C89.0162 214.392 87.2222 212.598 87.2222 210.392C87.2222 208.186 89.0162 206.392 91.2222 206.392C93.4282 206.392 95.2222 208.186 95.2222 210.392C95.2222 212.598 93.4282 214.392 91.2222 214.392Z" fill="#2D67B9"/>
<path fill-rule="evenodd" clip-rule="evenodd" d="M91.2222 205.392C88.4602 205.392 86.2222 207.63 86.2222 210.392C86.2222 213.154 88.4602 215.392 91.2222 215.392C93.9832 215.392 96.2222 213.154 96.2222 210.392C96.2222 207.63 93.9832 205.392 91.2222 205.392ZM91.2222 207.392C92.8762 207.392 94.2222 208.738 94.2222 210.392C94.2222 212.046 92.8762 213.392 91.2222 213.392C89.5682 213.392 88.2222 212.046 88.2222 210.392C88.2222 208.738 89.5682 207.392 91.2222 207.392Z" fill="#235090"/>
<path fill-rule="evenodd" clip-rule="evenodd" d="M287.222 238.642C285.016 238.642 283.222 236.848 283.222 234.642C283.222 232.436 285.016 230.642 287.222 230.642C289.428 230.642 291.222 232.436 291.222 234.642C291.222 236.848 289.428 238.642 287.222 238.642Z" fill="#2D67B9"/>
<path fill-rule="evenodd" clip-rule="evenodd" d="M287.222 229.642C284.46 229.642 282.222 231.88 282.222 234.642C282.222 237.404 284.46 239.642 287.222 239.642C289.983 239.642 292.222 237.404 292.222 234.642C292.222 231.88 289.983 229.642 287.222 229.642ZM287.222 231.642C288.876 231.642 290.222 232.988 290.222 234.642C290.222 236.296 288.876 237.642 287.222 237.642C285.568 237.642 284.222 236.296 284.222 234.642C284.222 232.988 285.568 231.642 287.222 231.642Z" fill="#235090"/>
<path fill-rule="evenodd" clip-rule="evenodd" d="M163.222 238.642C161.016 238.642 159.222 236.848 159.222 234.642C159.222 232.436 161.016 230.642 163.222 230.642C165.428 230.642 167.222 232.436 167.222 234.642C167.222 236.848 165.428 238.642 163.222 238.642Z" fill="#2D67B9"/>
<path fill-rule="evenodd" clip-rule="evenodd" d="M163.222 229.642C160.46 229.642 158.222 231.88 158.222 234.642C158.222 237.404 160.46 239.642 163.222 239.642C165.983 239.642 168.222 237.404 168.222 234.642C168.222 231.88 165.983 229.642 163.222 229.642ZM163.222 231.642C164.876 231.642 166.222 232.988 166.222 234.642C166.222 236.296 164.876 237.642 163.222 237.642C161.568 237.642 160.222 236.296 160.222 234.642C160.222 232.988 161.568 231.642 163.222 231.642Z" fill="#235090"/>
<path fill-rule="evenodd" clip-rule="evenodd" d="M25.2222 238.642C23.0162 238.642 21.2222 236.848 21.2222 234.642C21.2222 232.436 23.0162 230.642 25.2222 230.642C27.4282 230.642 29.2222 232.436 29.2222 234.642C29.2222 236.848 27.4282 238.642 25.2222 238.642Z" fill="#2D67B9"/>
<path fill-rule="evenodd" clip-rule="evenodd" d="M25.2222 229.642C22.4602 229.642 20.2222 231.88 20.2222 234.642C20.2222 237.404 22.4602 239.642 25.2222 239.642C27.9832 239.642 30.2222 237.404 30.2222 234.642C30.2222 231.88 27.9832 229.642 25.2222 229.642ZM25.2222 231.642C26.8762 231.642 28.2222 232.988 28.2222 234.642C28.2222 236.296 26.8762 237.642 25.2222 237.642C23.5682 237.642 22.2222 236.296 22.2222 234.642C22.2222 232.988 23.5682 231.642 25.2222 231.642Z" fill="#235090"/>
<path fill-rule="evenodd" clip-rule="evenodd" d="M193.222 254.892C191.016 254.892 189.222 253.098 189.222 250.892C189.222 248.686 191.016 246.892 193.222 246.892C195.428 246.892 197.222 248.686 197.222 250.892C197.222 253.098 195.428 254.892 193.222 254.892Z" fill="#2D67B9"/>
<path fill-rule="evenodd" clip-rule="evenodd" d="M193.222 245.892C190.46 245.892 188.222 248.13 188.222 250.892C188.222 253.654 190.46 255.892 193.222 255.892C195.983 255.892 198.222 253.654 198.222 250.892C198.222 248.13 195.983 245.892 193.222 245.892ZM193.222 247.892C194.876 247.892 196.222 249.238 196.222 250.892C196.222 252.546 194.876 253.892 193.222 253.892C191.568 253.892 190.222 252.546 190.222 250.892C190.222 249.238 191.568 247.892 193.222 247.892Z" fill="#235090"/>
<path fill-rule="evenodd" clip-rule="evenodd" d="M61.2222 254.892C59.0162 254.892 57.2222 253.098 57.2222 250.892C57.2222 248.686 59.0162 246.892 61.2222 246.892C63.4282 246.892 65.2222 248.686 65.2222 250.892C65.2222 253.098 63.4282 254.892 61.2222 254.892Z" fill="#2D67B9"/>
<path fill-rule="evenodd" clip-rule="evenodd" d="M61.2222 245.892C58.4602 245.892 56.2222 248.13 56.2222 250.892C56.2222 253.654 58.4602 255.892 61.2222 255.892C63.9832 255.892 66.2222 253.654 66.2222 250.892C66.2222 248.13 63.9832 245.892 61.2222 245.892ZM61.2222 247.892C62.8762 247.892 64.2222 249.238 64.2222 250.892C64.2222 252.546 62.8762 253.892 61.2222 253.892C59.5682 253.892 58.2222 252.546 58.2222 250.892C58.2222 249.238 59.5682 247.892 61.2222 247.892Z" fill="#235090"/>
<path fill-rule="evenodd" clip-rule="evenodd" d="M503.222 254.892C501.016 254.892 499.222 253.098 499.222 250.892C499.222 248.686 501.016 246.892 503.222 246.892C505.428 246.892 507.222 248.686 507.222 250.892C507.222 253.098 505.428 254.892 503.222 254.892Z" fill="#2D67B9"/>
<path fill-rule="evenodd" clip-rule="evenodd" d="M503.222 245.892C500.461 245.892 498.222 248.13 498.222 250.892C498.222 253.654 500.461 255.892 503.222 255.892C505.984 255.892 508.222 253.654 508.222 250.892C508.222 248.13 505.984 245.892 503.222 245.892ZM503.222 247.892C504.876 247.892 506.222 249.238 506.222 250.892C506.222 252.546 504.876 253.892 503.222 253.892C501.569 253.892 500.222 252.546 500.222 250.892C500.222 249.238 501.569 247.892 503.222 247.892Z" fill="#235090"/>
<path fill-rule="evenodd" clip-rule="evenodd" d="M483.222 238.642C481.016 238.642 479.222 236.848 479.222 234.642C479.222 232.436 481.016 230.642 483.222 230.642C485.428 230.642 487.222 232.436 487.222 234.642C487.222 236.848 485.428 238.642 483.222 238.642Z" fill="#2D67B9"/>
<path fill-rule="evenodd" clip-rule="evenodd" d="M483.222 229.642C480.461 229.642 478.222 231.88 478.222 234.642C478.222 237.404 480.461 239.642 483.222 239.642C485.984 239.642 488.222 237.404 488.222 234.642C488.222 231.88 485.984 229.642 483.222 229.642ZM483.222 231.642C484.876 231.642 486.222 232.988 486.222 234.642C486.222 236.296 484.876 237.642 483.222 237.642C481.569 237.642 480.222 236.296 480.222 234.642C480.222 232.988 481.569 231.642 483.222 231.642Z" fill="#235090"/>
<rect width="612" height="300" fill="url(#paint0_linear)"/>
<defs>
<linearGradient id="paint0_linear" x1="306" y1="0" x2="306" y2="300" gradientUnits="userSpaceOnUse">
<stop stop-color="white"/>
<stop offset="1" stop-color="white" stop-opacity="0"/>
</linearGradient>
</defs>
</svg>
